<svg xmlns="http://www.w3.org/2000/svg" xmlns:xlink="http://www.w3.org/1999/xlink" width="500" zoomAndPan="magnify" viewBox="0 0 375 374.999991" height="500" preserveAspectRatio="xMidYMid meet" version="1.0"><defs><g/><clipPath id="82e3f5e00e"><path d="M 125.800781 81.128906 L 249.511719 81.128906 L 249.511719 214.628906 L 125.800781 214.628906 Z M 125.800781 81.128906 " clip-rule="nonzero"/></clipPath></defs><g fill="#29221c" fill-opacity="1"><g transform="translate(131.053107, 250.055847)"><g><path d="M 23.90625 -20.09375 L 23.90625 0 L 19.875 0 L 19.875 -13.078125 L 14.484375 0 L 11.4375 0 L 6.015625 -13.078125 L 6.015625 0 L 1.984375 0 L 1.984375 -20.09375 L 6.5625 -20.09375 L 12.953125 -5.15625 L 19.34375 -20.09375 Z M 23.90625 -20.09375 "/></g></g></g><g fill="#29221c" fill-opacity="1"><g transform="translate(162.700487, 250.055847)"><g><path d="M 14.3125 -3.828125 L 6.3125 -3.828125 L 4.984375 0 L 0.75 0 L 7.984375 -20.125 L 12.671875 -20.125 L 19.90625 0 L 15.640625 0 Z M 13.21875 -7.0625 L 10.3125 -15.46875 L 7.40625 -7.0625 Z M 13.21875 -7.0625 "/></g></g></g><g fill="#29221c" fill-opacity="1"><g transform="translate(189.078407, 250.055847)"><g><path d="M 6.015625 -3.203125 L 12.640625 -3.203125 L 12.640625 0 L 1.984375 0 L 1.984375 -20.09375 L 6.015625 -20.09375 Z M 6.015625 -3.203125 "/></g></g></g><g fill="#29221c" fill-opacity="1"><g transform="translate(208.056044, 250.055847)"><g><path d="M 1.015625 -10.078125 C 1.015625 -12.054688 1.457031 -13.828125 2.34375 -15.390625 C 3.238281 -16.953125 4.457031 -18.171875 6 -19.046875 C 7.550781 -19.921875 9.285156 -20.359375 11.203125 -20.359375 C 13.453125 -20.359375 15.421875 -19.78125 17.109375 -18.625 C 18.796875 -17.476562 19.972656 -15.882812 20.640625 -13.84375 L 16.015625 -13.84375 C 15.546875 -14.8125 14.894531 -15.535156 14.0625 -16.015625 C 13.226562 -16.492188 12.265625 -16.734375 11.171875 -16.734375 C 10.003906 -16.734375 8.960938 -16.457031 8.046875 -15.90625 C 7.140625 -15.363281 6.429688 -14.59375 5.921875 -13.59375 C 5.410156 -12.59375 5.15625 -11.421875 5.15625 -10.078125 C 5.15625 -8.753906 5.410156 -7.585938 5.921875 -6.578125 C 6.429688 -5.566406 7.140625 -4.785156 8.046875 -4.234375 C 8.960938 -3.691406 10.003906 -3.421875 11.171875 -3.421875 C 12.265625 -3.421875 13.226562 -3.664062 14.0625 -4.15625 C 14.894531 -4.644531 15.546875 -5.367188 16.015625 -6.328125 L 20.640625 -6.328125 C 19.972656 -4.273438 18.796875 -2.675781 17.109375 -1.53125 C 15.429688 -0.394531 13.460938 0.171875 11.203125 0.171875 C 9.285156 0.171875 7.550781 -0.265625 6 -1.140625 C 4.457031 -2.015625 3.238281 -3.226562 2.34375 -4.78125 C 1.457031 -6.332031 1.015625 -8.097656 1.015625 -10.078125 Z M 1.015625 -10.078125 "/></g></g></g><g fill="#29221c" fill-opacity="1"><g transform="translate(235.931298, 250.055847)"><g><path d="M 6.015625 -20.09375 L 6.015625 0 L 1.984375 0 L 1.984375 -20.09375 Z M 6.015625 -20.09375 "/></g></g></g><g fill="#29221c" fill-opacity="1"><g transform="translate(41.281777, 290.069997)"><g><path d="M 1.015625 -10.078125 C 1.015625 -12.054688 1.457031 -13.828125 2.34375 -15.390625 C 3.238281 -16.953125 4.457031 -18.171875 6 -19.046875 C 7.550781 -19.921875 9.285156 -20.359375 11.203125 -20.359375 C 13.453125 -20.359375 15.421875 -19.78125 17.109375 -18.625 C 18.796875 -17.476562 19.972656 -15.882812 20.640625 -13.84375 L 16.015625 -13.84375 C 15.546875 -14.8125 14.894531 -15.535156 14.0625 -16.015625 C 13.226562 -16.492188 12.265625 -16.734375 11.171875 -16.734375 C 10.003906 -16.734375 8.960938 -16.457031 8.046875 -15.90625 C 7.140625 -15.363281 6.429688 -14.59375 5.921875 -13.59375 C 5.410156 -12.59375 5.15625 -11.421875 5.15625 -10.078125 C 5.15625 -8.753906 5.410156 -7.585938 5.921875 -6.578125 C 6.429688 -5.566406 7.140625 -4.785156 8.046875 -4.234375 C 8.960938 -3.691406 10.003906 -3.421875 11.171875 -3.421875 C 12.265625 -3.421875 13.226562 -3.664062 14.0625 -4.15625 C 14.894531 -4.644531 15.546875 -5.367188 16.015625 -6.328125 L 20.640625 -6.328125 C 19.972656 -4.273438 18.796875 -2.675781 17.109375 -1.53125 C 15.429688 -0.394531 13.460938 0.171875 11.203125 0.171875 C 9.285156 0.171875 7.550781 -0.265625 6 -1.140625 C 4.457031 -2.015625 3.238281 -3.226562 2.34375 -4.78125 C 1.457031 -6.332031 1.015625 -8.097656 1.015625 -10.078125 Z M 1.015625 -10.078125 "/></g></g></g><g fill="#29221c" fill-opacity="1"><g transform="translate(69.157029, 290.069997)"><g><path d="M 11.3125 0.203125 C 9.4375 0.203125 7.707031 -0.238281 6.125 -1.125 C 4.550781 -2.007812 3.304688 -3.234375 2.390625 -4.796875 C 1.472656 -6.359375 1.015625 -8.128906 1.015625 -10.109375 C 1.015625 -12.066406 1.472656 -13.828125 2.390625 -15.390625 C 3.304688 -16.953125 4.550781 -18.175781 6.125 -19.0625 C 7.707031 -19.945312 9.4375 -20.390625 11.3125 -20.390625 C 13.21875 -20.390625 14.953125 -19.945312 16.515625 -19.0625 C 18.078125 -18.175781 19.3125 -16.953125 20.21875 -15.390625 C 21.132812 -13.828125 21.59375 -12.066406 21.59375 -10.109375 C 21.59375 -8.128906 21.132812 -6.359375 20.21875 -4.796875 C 19.3125 -3.234375 18.070312 -2.007812 16.5 -1.125 C 14.925781 -0.238281 13.195312 0.203125 11.3125 0.203125 Z M 11.3125 -3.390625 C 12.519531 -3.390625 13.582031 -3.664062 14.5 -4.21875 C 15.425781 -4.769531 16.148438 -5.550781 16.671875 -6.5625 C 17.191406 -7.582031 17.453125 -8.765625 17.453125 -10.109375 C 17.453125 -11.453125 17.191406 -12.625 16.671875 -13.625 C 16.148438 -14.632812 15.425781 -15.410156 14.5 -15.953125 C 13.582031 -16.492188 12.519531 -16.765625 11.3125 -16.765625 C 10.101562 -16.765625 9.03125 -16.492188 8.09375 -15.953125 C 7.164062 -15.410156 6.441406 -14.632812 5.921875 -13.625 C 5.410156 -12.625 5.15625 -11.453125 5.15625 -10.109375 C 5.15625 -8.765625 5.410156 -7.582031 5.921875 -6.5625 C 6.441406 -5.550781 7.164062 -4.769531 8.09375 -4.21875 C 9.03125 -3.664062 10.101562 -3.390625 11.3125 -3.390625 Z M 11.3125 -3.390625 "/></g></g></g><g fill="#29221c" fill-opacity="1"><g transform="translate(97.521795, 290.069997)"><g><path d="M 19.171875 0 L 15.140625 0 L 6.015625 -13.796875 L 6.015625 0 L 1.984375 0 L 1.984375 -20.125 L 6.015625 -20.125 L 15.140625 -6.3125 L 15.140625 -20.125 L 19.171875 -20.125 Z M 19.171875 0 "/></g></g></g><g fill="#29221c" fill-opacity="1"><g transform="translate(124.446815, 290.069997)"><g><path d="M 8.921875 0.203125 C 7.523438 0.203125 6.265625 -0.0351562 5.140625 -0.515625 C 4.015625 -0.992188 3.125 -1.679688 2.46875 -2.578125 C 1.820312 -3.484375 1.488281 -4.550781 1.46875 -5.78125 L 5.78125 -5.78125 C 5.84375 -4.957031 6.132812 -4.304688 6.65625 -3.828125 C 7.1875 -3.347656 7.914062 -3.109375 8.84375 -3.109375 C 9.78125 -3.109375 10.515625 -3.332031 11.046875 -3.78125 C 11.585938 -4.238281 11.859375 -4.832031 11.859375 -5.5625 C 11.859375 -6.15625 11.675781 -6.644531 11.3125 -7.03125 C 10.945312 -7.414062 10.488281 -7.71875 9.9375 -7.9375 C 9.394531 -8.15625 8.644531 -8.398438 7.6875 -8.671875 C 6.382812 -9.054688 5.320312 -9.429688 4.5 -9.796875 C 3.6875 -10.171875 2.988281 -10.738281 2.40625 -11.5 C 1.820312 -12.257812 1.53125 -13.273438 1.53125 -14.546875 C 1.53125 -15.734375 1.828125 -16.769531 2.421875 -17.65625 C 3.015625 -18.539062 3.847656 -19.21875 4.921875 -19.6875 C 5.992188 -20.15625 7.222656 -20.390625 8.609375 -20.390625 C 10.679688 -20.390625 12.363281 -19.882812 13.65625 -18.875 C 14.957031 -17.863281 15.675781 -16.457031 15.8125 -14.65625 L 11.375 -14.65625 C 11.332031 -15.34375 11.035156 -15.910156 10.484375 -16.359375 C 9.941406 -16.816406 9.222656 -17.046875 8.328125 -17.046875 C 7.535156 -17.046875 6.90625 -16.84375 6.4375 -16.4375 C 5.96875 -16.039062 5.734375 -15.457031 5.734375 -14.6875 C 5.734375 -14.144531 5.910156 -13.695312 6.265625 -13.34375 C 6.617188 -12.988281 7.054688 -12.703125 7.578125 -12.484375 C 8.109375 -12.265625 8.851562 -12.007812 9.8125 -11.71875 C 11.125 -11.332031 12.191406 -10.945312 13.015625 -10.5625 C 13.835938 -10.1875 14.546875 -9.613281 15.140625 -8.84375 C 15.742188 -8.070312 16.046875 -7.0625 16.046875 -5.8125 C 16.046875 -4.738281 15.765625 -3.738281 15.203125 -2.8125 C 14.648438 -1.894531 13.832031 -1.160156 12.75 -0.609375 C 11.675781 -0.0664062 10.398438 0.203125 8.921875 0.203125 Z M 8.921875 0.203125 "/></g></g></g><g fill="#29221c" fill-opacity="1"><g transform="translate(147.743687, 290.069997)"><g><path d="M 15.671875 -20.09375 L 15.671875 -16.84375 L 10.3125 -16.84375 L 10.3125 0 L 6.28125 0 L 6.28125 -16.84375 L 0.921875 -16.84375 L 0.921875 -20.09375 Z M 15.671875 -20.09375 "/></g></g></g><g fill="#29221c" fill-opacity="1"><g transform="translate(170.119127, 290.069997)"><g><path d="M 12.359375 0 L 7.921875 -7.828125 L 6.015625 -7.828125 L 6.015625 0 L 1.984375 0 L 1.984375 -20.09375 L 9.53125 -20.09375 C 11.082031 -20.09375 12.40625 -19.816406 13.5 -19.265625 C 14.59375 -18.722656 15.410156 -17.988281 15.953125 -17.0625 C 16.503906 -16.132812 16.78125 -15.09375 16.78125 -13.9375 C 16.78125 -12.613281 16.394531 -11.414062 15.625 -10.34375 C 14.863281 -9.28125 13.722656 -8.550781 12.203125 -8.15625 L 17.015625 0 Z M 6.015625 -10.859375 L 9.390625 -10.859375 C 10.484375 -10.859375 11.296875 -11.117188 11.828125 -11.640625 C 12.367188 -12.171875 12.640625 -12.90625 12.640625 -13.84375 C 12.640625 -14.769531 12.367188 -15.488281 11.828125 -16 C 11.296875 -16.507812 10.484375 -16.765625 9.390625 -16.765625 L 6.015625 -16.765625 Z M 6.015625 -10.859375 "/></g></g></g><g fill="#29221c" fill-opacity="1"><g transform="translate(194.337438, 290.069997)"><g><path d="M 5.96875 -20.09375 L 5.96875 -7.65625 C 5.96875 -6.289062 6.320312 -5.25 7.03125 -4.53125 C 7.738281 -3.8125 8.734375 -3.453125 10.015625 -3.453125 C 11.328125 -3.453125 12.335938 -3.8125 13.046875 -4.53125 C 13.753906 -5.25 14.109375 -6.289062 14.109375 -7.65625 L 14.109375 -20.09375 L 18.171875 -20.09375 L 18.171875 -7.6875 C 18.171875 -5.976562 17.800781 -4.53125 17.0625 -3.34375 C 16.320312 -2.164062 15.332031 -1.28125 14.09375 -0.6875 C 12.851562 -0.09375 11.476562 0.203125 9.96875 0.203125 C 8.46875 0.203125 7.109375 -0.09375 5.890625 -0.6875 C 4.671875 -1.28125 3.703125 -2.164062 2.984375 -3.34375 C 2.273438 -4.53125 1.921875 -5.976562 1.921875 -7.6875 L 1.921875 -20.09375 Z M 5.96875 -20.09375 "/></g></g></g><g fill="#29221c" fill-opacity="1"><g transform="translate(220.168258, 290.069997)"><g><path d="M 1.015625 -10.078125 C 1.015625 -12.054688 1.457031 -13.828125 2.34375 -15.390625 C 3.238281 -16.953125 4.457031 -18.171875 6 -19.046875 C 7.550781 -19.921875 9.285156 -20.359375 11.203125 -20.359375 C 13.453125 -20.359375 15.421875 -19.78125 17.109375 -18.625 C 18.796875 -17.476562 19.972656 -15.882812 20.640625 -13.84375 L 16.015625 -13.84375 C 15.546875 -14.8125 14.894531 -15.535156 14.0625 -16.015625 C 13.226562 -16.492188 12.265625 -16.734375 11.171875 -16.734375 C 10.003906 -16.734375 8.960938 -16.457031 8.046875 -15.90625 C 7.140625 -15.363281 6.429688 -14.59375 5.921875 -13.59375 C 5.410156 -12.59375 5.15625 -11.421875 5.15625 -10.078125 C 5.15625 -8.753906 5.410156 -7.585938 5.921875 -6.578125 C 6.429688 -5.566406 7.140625 -4.785156 8.046875 -4.234375 C 8.960938 -3.691406 10.003906 -3.421875 11.171875 -3.421875 C 12.265625 -3.421875 13.226562 -3.664062 14.0625 -4.15625 C 14.894531 -4.644531 15.546875 -5.367188 16.015625 -6.328125 L 20.640625 -6.328125 C 19.972656 -4.273438 18.796875 -2.675781 17.109375 -1.53125 C 15.429688 -0.394531 13.460938 0.171875 11.203125 0.171875 C 9.285156 0.171875 7.550781 -0.265625 6 -1.140625 C 4.457031 -2.015625 3.238281 -3.226562 2.34375 -4.78125 C 1.457031 -6.332031 1.015625 -8.097656 1.015625 -10.078125 Z M 1.015625 -10.078125 "/></g></g></g><g fill="#29221c" fill-opacity="1"><g transform="translate(248.043512, 290.069997)"><g><path d="M 15.671875 -20.09375 L 15.671875 -16.84375 L 10.3125 -16.84375 L 10.3125 0 L 6.28125 0 L 6.28125 -16.84375 L 0.921875 -16.84375 L 0.921875 -20.09375 Z M 15.671875 -20.09375 "/></g></g></g><g fill="#29221c" fill-opacity="1"><g transform="translate(270.418944, 290.069997)"><g><path d="M 6.015625 -20.09375 L 6.015625 0 L 1.984375 0 L 1.984375 -20.09375 Z M 6.015625 -20.09375 "/></g></g></g><g fill="#29221c" fill-opacity="1"><g transform="translate(284.184714, 290.069997)"><g><path d="M 11.3125 0.203125 C 9.4375 0.203125 7.707031 -0.238281 6.125 -1.125 C 4.550781 -2.007812 3.304688 -3.234375 2.390625 -4.796875 C 1.472656 -6.359375 1.015625 -8.128906 1.015625 -10.109375 C 1.015625 -12.066406 1.472656 -13.828125 2.390625 -15.390625 C 3.304688 -16.953125 4.550781 -18.175781 6.125 -19.0625 C 7.707031 -19.945312 9.4375 -20.390625 11.3125 -20.390625 C 13.21875 -20.390625 14.953125 -19.945312 16.515625 -19.0625 C 18.078125 -18.175781 19.3125 -16.953125 20.21875 -15.390625 C 21.132812 -13.828125 21.59375 -12.066406 21.59375 -10.109375 C 21.59375 -8.128906 21.132812 -6.359375 20.21875 -4.796875 C 19.3125 -3.234375 18.070312 -2.007812 16.5 -1.125 C 14.925781 -0.238281 13.195312 0.203125 11.3125 0.203125 Z M 11.3125 -3.390625 C 12.519531 -3.390625 13.582031 -3.664062 14.5 -4.21875 C 15.425781 -4.769531 16.148438 -5.550781 16.671875 -6.5625 C 17.191406 -7.582031 17.453125 -8.765625 17.453125 -10.109375 C 17.453125 -11.453125 17.191406 -12.625 16.671875 -13.625 C 16.148438 -14.632812 15.425781 -15.410156 14.5 -15.953125 C 13.582031 -16.492188 12.519531 -16.765625 11.3125 -16.765625 C 10.101562 -16.765625 9.03125 -16.492188 8.09375 -15.953125 C 7.164062 -15.410156 6.441406 -14.632812 5.921875 -13.625 C 5.410156 -12.625 5.15625 -11.453125 5.15625 -10.109375 C 5.15625 -8.765625 5.410156 -7.582031 5.921875 -6.5625 C 6.441406 -5.550781 7.164062 -4.769531 8.09375 -4.21875 C 9.03125 -3.664062 10.101562 -3.390625 11.3125 -3.390625 Z M 11.3125 -3.390625 "/></g></g></g><g fill="#29221c" fill-opacity="1"><g transform="translate(312.549473, 290.069997)"><g><path d="M 19.171875 0 L 15.140625 0 L 6.015625 -13.796875 L 6.015625 0 L 1.984375 0 L 1.984375 -20.125 L 6.015625 -20.125 L 15.140625 -6.3125 L 15.140625 -20.125 L 19.171875 -20.125 Z M 19.171875 0 "/></g></g></g><g clip-path="url(#82e3f5e00e)"><path fill="#004aad" d="M 125.761719 131.347656 L 125.761719 116.816406 L 187.699219 81.144531 L 249.230469 116.816406 L 249.230469 131.292969 L 236.675781 123.855469 L 187.699219 95.621094 L 138.320312 123.855469 Z M 219.050781 137.984375 L 219.050781 201.894531 L 236.675781 201.894531 L 236.675781 186.589844 L 249.230469 186.589844 L 249.230469 214.449219 L 206.492188 214.449219 L 206.492188 116.015625 L 249.207031 140.730469 L 249.207031 163.472656 L 236.675781 163.472656 L 236.675781 148.171875 Z M 166.929688 131.71875 L 166.929688 214.449219 L 154.371094 214.449219 L 154.371094 138.785156 L 138.292969 148.195312 L 138.292969 214.449219 L 125.761719 214.449219 L 125.761719 140.703125 L 187.699219 105.03125 L 190.816406 107.003906 L 193.964844 108.976562 L 193.964844 214.398438 L 181.03125 214.398438 L 181.03125 123.480469 Z M 166.929688 131.71875 " fill-opacity="1" fill-rule="nonzero"/></g></svg>